<svg xmlns="http://www.w3.org/2000/svg" viewBox="0 0 64 64">
  <rect width="64" height="64" fill="#000"/>
  <g fill="none" stroke="#fff" stroke-width="3" stroke-linecap="round">
    <!-- Gordian knot - interlocking loops -->
    <path d="M32 12 C44 12 52 20 52 32 C52 38 48 44 42 46" />
    <path d="M22 46 C16 44 12 38 12 32 C12 20 20 12 32 12" />
    <path d="M42 46 C42 50 38 54 32 54 C26 54 22 50 22 46" />
    <!-- Cross-overs creating the knot -->
    <path d="M26 28 C26 22 30 18 36 20 C40 22 42 28 38 34" />
    <path d="M38 34 C34 40 28 40 26 36 C24 32 26 28 32 26" />
    <path d="M32 26 C38 24 42 28 40 34 C38 40 32 42 28 38" />
    <!-- Inner detail -->
    <circle cx="32" cy="32" r="4" stroke-width="2"/>
  </g>
</svg>
