<svg xmlns="http://www.w3.org/2000/svg" width="1200" height="440" viewBox="0 0 1200 440">
<defs><linearGradient id="bg" x2="1" y2="1"><stop stop-color="#101521"/><stop offset="1" stop-color="#1b1930"/></linearGradient></defs>
<style>.title{fill:#f4e6c7;font:600 27px Georgia,serif;letter-spacing:.3px} .sub{fill:#aeb9cf;font:15px ui-monospace,monospace} .label{fill:#c9d4e7;font:13px ui-monospace,monospace}</style>
<rect width="100%" height="100%" fill="url(#bg)" rx="18"/>
<text x="72" y="58" class="title">The Answer That Waits</text><text x="72" y="84" class="sub">signal · gap · answer that refuses to impersonate certainty</text>
<line x1="76" y1="352" x2="1128" y2="352" stroke="#71809a" opacity=".4"/>
<text x="76" y="384" class="sub">0:00</text><text x="1055" y="384" class="sub">0:55</text>
<circle cx="152.4" cy="110" r="10" fill="hsl(38 78% 64%)"/><path d="M165.4,110 C226.4,74 257.4,146 303.4,110" fill="none" stroke="hsl(38 75% 68%)" stroke-width="2" opacity=".8"/><line x1="174.4" y1="110" x2="209.4" y2="110" stroke="#8a94a8" stroke-dasharray="4 6"/><circle cx="309.4" cy="110" r="5" fill="#d9e2f3"/><text x="152.4" y="137" class="label">a claim arrives</text><circle cx="295.5" cy="192" r="10" fill="hsl(61 78% 64%)"/><path d="M308.5,192 C369.5,156 400.5,228 446.5,192" fill="none" stroke="hsl(61 75% 68%)" stroke-width="2" opacity=".8"/><line x1="317.5" y1="192" x2="352.5" y2="192" stroke="#8a94a8" stroke-dasharray="4 6"/><circle cx="452.5" cy="192" r="5" fill="#d9e2f3"/><text x="295.5" y="219" class="label">a measurement repeats</text><circle cx="438.7" cy="274" r="10" fill="hsl(84 78% 64%)"/><path d="M451.7,274 C512.7,238 543.7,310 589.7,274" fill="none" stroke="hsl(84 75% 68%)" stroke-width="2" opacity=".8"/><line x1="460.7" y1="274" x2="495.7" y2="274" stroke="#8a94a8" stroke-dasharray="4 6"/><circle cx="595.7" cy="274" r="5" fill="#d9e2f3"/><text x="438.7" y="301" class="label">a feeling is named</text><circle cx="581.9" cy="110" r="10" fill="hsl(107 78% 64%)"/><path d="M594.9,110 C655.9,74 686.9,146 732.9,110" fill="none" stroke="hsl(107 75% 68%)" stroke-width="2" opacity=".8"/><line x1="603.9" y1="110" x2="638.9" y2="110" stroke="#8a94a8" stroke-dasharray="4 6"/><circle cx="738.9" cy="110" r="5" fill="#d9e2f3"/><text x="581.9" y="137" class="label">a story coheres</text><circle cx="725.1" cy="192" r="10" fill="hsl(130 78% 64%)"/><path d="M738.1,192 C799.1,156 830.1,228 876.1,192" fill="none" stroke="hsl(130 75% 68%)" stroke-width="2" opacity=".8"/><line x1="747.1" y1="192" x2="782.1" y2="192" stroke="#8a94a8" stroke-dasharray="4 6"/><circle cx="882.1" cy="192" r="5" fill="#d9e2f3"/><text x="725.1" y="219" class="label">a tool is offered</text><circle cx="868.3" cy="274" r="10" fill="hsl(153 78% 64%)"/><path d="M881.3,274 C942.3,238 973.3,310 1019.3,274" fill="none" stroke="hsl(153 75% 68%)" stroke-width="2" opacity=".8"/><line x1="890.3" y1="274" x2="925.3" y2="274" stroke="#8a94a8" stroke-dasharray="4 6"/><circle cx="1025.3" cy="274" r="5" fill="#d9e2f3"/><text x="868.3" y="301" class="label">a consequence appears</text><circle cx="1011.5" cy="110" r="10" fill="hsl(176 78% 64%)"/><path d="M1024.5,110 C1085.5,74 1116.5,146 1162.5,110" fill="none" stroke="hsl(176 75% 68%)" stroke-width="2" opacity=".8"/><line x1="1033.5" y1="110" x2="1068.5" y2="110" stroke="#8a94a8" stroke-dasharray="4 6"/><circle cx="1168.5" cy="110" r="5" fill="#d9e2f3"/><text x="1011.5" y="137" class="label">a question remains</text>
</svg>